<?xml version="1.0" encoding="UTF-8"?>
<svg version="1.1" xmlns="http://www.w3.org/2000/svg" width="512" height="512">
<path d="M0 0 C3.18480543 2.6009827 6.18269845 5.3470608 9.13671875 8.20703125 C9.9244165 8.96798096 10.71211426 9.72893066 11.52368164 10.51293945 C23.1588639 22.50903739 29.79300095 37.86890725 37.01171875 52.70703125 C39.21091952 57.19984129 41.41742415 61.68900441 43.62890625 66.17578125 C44.16898819 67.27271805 44.70907013 68.36965485 45.26551819 69.49983215 C50.20734423 79.47442957 55.5018761 89.23612703 60.90087891 98.96893311 C62.50461849 101.87329535 64.06883881 104.79643663 65.625 107.7265625 C72.81489439 121.22098716 80.48797436 134.36914936 88.44482422 147.42480469 C91.02859464 151.6736716 93.5836718 155.93965339 96.13671875 160.20703125 C99.094885 157.59935325 100.80773314 154.57085882 102.76171875 151.16796875 C103.46977293 149.94374603 104.17786355 148.71954437 104.88598633 147.49536133 C105.25333893 146.85627838 105.62069153 146.21719543 105.99917603 145.55874634 C112.32235525 134.57091835 118.77759682 123.71592995 125.82421875 113.17285156 C127.21911785 111.08361653 128.60037825 108.98576179 129.98046875 106.88671875 C141.5592059 89.33055929 153.74469664 72.19609383 166.13671875 55.20703125 C167.00345215 54.017146 167.00345215 54.017146 167.88769531 52.80322266 C178.24358787 38.60416844 188.92677918 24.74356205 200.13671875 11.20703125 C200.92691406 10.20542969 201.71710938 9.20382813 202.53125 8.171875 C215.39329089 -6.46424049 235.16874433 -12.14988732 253.83203125 -14.0703125 C273.07978342 -14.88589522 293.53482642 -7.18938088 307.69921875 5.76953125 C312.06666304 10.13697554 315.60802243 15.15627402 319.13671875 20.20703125 C319.55356934 20.75681641 319.97041992 21.30660156 320.39990234 21.87304688 C327.43894721 31.25134333 331.16040842 42.73619748 332.67146301 54.28134155 C332.79232956 55.16906042 332.9131961 56.05677928 333.03772527 56.97139871 C334.74105083 70.11545039 335.71053096 83.3430895 336.76757634 96.55143237 C337.09209963 100.58850289 337.42413729 104.62495699 337.75515747 108.66149902 C338.39978926 116.53665218 339.03762158 124.41234133 339.6729854 132.28824706 C340.41439631 141.475879 341.16238937 150.66297167 341.91053114 159.85005753 C343.24529098 176.24384285 344.57370421 192.63813627 345.89868164 209.03271484 C347.1824413 224.91726334 348.4714215 240.80137748 349.76586914 256.68505859 C351.17902769 274.02548708 352.58939481 291.36613822 353.99483997 308.70719373 C354.1447658 310.55701732 354.29469252 312.40684083 354.44462013 314.25666428 C354.51836615 315.16660631 354.59211216 316.07654834 354.6680929 317.01406438 C355.18660138 323.40977388 355.70701756 329.8053265 356.22812462 336.20082474 C356.86290828 343.99248659 357.49442116 351.78440567 358.1218427 359.57666393 C358.44167089 363.54787886 358.76287988 367.51896856 359.08795738 371.48975754 C359.38589532 375.12959167 359.6796769 378.7697374 359.97024999 382.41016667 C360.12523864 384.33887174 360.28453842 386.26722892 360.44403094 388.19556677 C362.71993202 416.96320741 356.26362707 439.10742094 337.59375 461.21875 C331.61455791 467.58810144 324.80897319 472.09066 317.13671875 476.20703125 C316.21503906 476.70203125 315.29335938 477.19703125 314.34375 477.70703125 C297.39770246 485.7378803 276.47924347 486.17581746 258.95703125 480.10546875 C255.96257924 478.89991015 253.04943418 477.59800148 250.13671875 476.20703125 C248.73099609 475.54380859 248.73099609 475.54380859 247.296875 474.8671875 C240.23234608 471.29033625 234.7993347 466.69451474 229.13671875 461.20703125 C228.51023437 460.665625 227.88375 460.12421875 227.23828125 459.56640625 C218.91711337 452.11124227 214.33969222 441.273725 210.26171875 431.08203125 C209.97554688 430.37908936 209.689375 429.67614746 209.39453125 428.9519043 C205.08624773 417.66984575 204.68149033 405.6441534 203.93206787 393.71905518 C203.63488712 389.00962934 203.31539619 384.30172003 202.99609375 379.59375 C202.92917328 378.60366943 202.86225281 377.61358887 202.79330444 376.59350586 C202.04099616 365.59284803 201.17264857 354.60184386 200.27850342 343.61190796 C200.10121767 341.43233967 199.92514365 339.25267246 199.75030518 337.07290649 C199.50474072 334.01577848 199.25505099 330.95901782 199.00390625 327.90234375 C198.93109436 326.9927742 198.85828247 326.08320465 198.78326416 325.14607239 C198.4455155 321.10185333 198.06900344 317.16796478 197.13671875 313.20703125 C196.82557129 313.89104004 196.51442383 314.57504883 196.19384766 315.27978516 C190.18063693 328.40292798 184.34253952 341.01653934 175.13671875 352.20703125 C174.41097656 353.10035156 173.68523437 353.99367188 172.9375 354.9140625 C158.30836953 372.01202289 137.10458922 384.6262415 114.32421875 386.4296875 C90.03150267 387.14235647 68.31773681 380.14625606 50.48242188 363.39575195 C49.02754904 362.00608284 47.58197967 360.60669409 46.13671875 359.20703125 C45.33105469 358.44132812 44.52539062 357.675625 43.6953125 356.88671875 C34.11083574 347.58560913 26.20880985 336.80691706 18.13671875 326.20703125 C17.01990472 335.36047133 16.97395163 344.47867776 16.93748856 353.68380165 C16.92553319 356.440001 16.90604223 359.196055 16.8843689 361.95219421 C16.82329785 369.78114901 16.76882457 377.61008323 16.73535156 385.43920898 C16.71424363 390.25015231 16.67882376 395.06081918 16.63459396 399.87160301 C16.62057266 401.68816029 16.61174343 403.50476633 16.60853958 405.32137489 C16.55721131 431.63074938 9.53180869 452.5776411 -8.54296875 472.1015625 C-24.43921277 487.00746544 -44.72000519 493.78156627 -66.35424805 493.25415039 C-86.25560855 492.16826986 -105.1434231 481.62839811 -118.61328125 467.33203125 C-125.25317418 459.61068466 -129.3009328 451.52388706 -133.11328125 442.14453125 C-133.45496338 441.3055127 -133.79664551 440.46649414 -134.14868164 439.60205078 C-134.63389282 438.36817627 -134.63389282 438.36817627 -135.12890625 437.109375 C-135.41540039 436.38226318 -135.70189453 435.65515137 -135.99707031 434.90600586 C-138.38633561 427.46143769 -139.1557869 420.4876858 -139.12207031 412.68847656 C-139.1255183 411.67198154 -139.12896629 410.65548653 -139.13251877 409.60818863 C-139.14116179 406.25044484 -139.1353239 402.89290247 -139.12890625 399.53515625 C-139.13110619 397.15856865 -139.13396793 394.78198158 -139.13745117 392.40539551 C-139.14324959 386.06634141 -139.13467609 379.72739131 -139.12123108 373.38835144 C-139.11326708 369.45002241 -139.10825314 365.51169878 -139.10388184 361.57336426 C-139.05548238 323.74482681 -138.77224425 285.99339785 -136.86328125 248.20703125 C-136.7968507 246.85584714 -136.7306766 245.50465039 -136.66473389 244.15344238 C-134.16591366 193.00649974 -130.61564552 141.97120412 -124.80078125 91.08203125 C-124.68285217 90.04326843 -124.5649231 89.00450562 -124.44342041 87.93426514 C-123.1291131 76.46893828 -121.60479875 65.04718279 -119.82421875 53.64453125 C-119.66424911 52.60183075 -119.50427948 51.55913025 -119.33946228 50.48483276 C-117.40445299 38.44912065 -112.84269616 29.2078379 -105.86328125 19.20703125 C-105.32960937 18.43617187 -104.7959375 17.6653125 -104.24609375 16.87109375 C-97.26274696 7.34834813 -88.39144706 -0.44075052 -77.86328125 -5.79296875 C-76.98542969 -6.24414062 -76.10757813 -6.6953125 -75.203125 -7.16015625 C-51.44829508 -18.20435503 -21.04812318 -16.05365327 0 0 Z " fill="#4FE911" transform="translate(146.86328125,15.79296875)"/>
<path d="M0 0 C3.18480543 2.6009827 6.18269845 5.3470608 9.13671875 8.20703125 C9.9244165 8.96798096 10.71211426 9.72893066 11.52368164 10.51293945 C23.1588639 22.50903739 29.79300095 37.86890725 37.01171875 52.70703125 C39.21091952 57.19984129 41.41742415 61.68900441 43.62890625 66.17578125 C44.16898819 67.27271805 44.70907013 68.36965485 45.26551819 69.49983215 C50.20734423 79.47442957 55.5018761 89.23612703 60.90087891 98.96893311 C62.50461849 101.87329535 64.06883881 104.79643663 65.625 107.7265625 C72.81489439 121.22098716 80.48797436 134.36914936 88.44482422 147.42480469 C91.02859464 151.6736716 93.5836718 155.93965339 96.13671875 160.20703125 C99.094885 157.59935325 100.80773314 154.57085882 102.76171875 151.16796875 C103.46977293 149.94374603 104.17786355 148.71954437 104.88598633 147.49536133 C105.25333893 146.85627838 105.62069153 146.21719543 105.99917603 145.55874634 C112.32235525 134.57091835 118.77759682 123.71592995 125.82421875 113.17285156 C127.21911785 111.08361653 128.60037825 108.98576179 129.98046875 106.88671875 C141.5592059 89.33055929 153.74469664 72.19609383 166.13671875 55.20703125 C167.00345215 54.017146 167.00345215 54.017146 167.88769531 52.80322266 C178.24358787 38.60416844 188.92677918 24.74356205 200.13671875 11.20703125 C200.92691406 10.20542969 201.71710938 9.20382813 202.53125 8.171875 C215.39329089 -6.46424049 235.16874433 -12.14988732 253.83203125 -14.0703125 C273.07978342 -14.88589522 293.53482642 -7.18938088 307.69921875 5.76953125 C312.06666304 10.13697554 315.60802243 15.15627402 319.13671875 20.20703125 C319.55356934 20.75681641 319.97041992 21.30660156 320.39990234 21.87304688 C327.43894721 31.25134333 331.16040842 42.73619748 332.67146301 54.28134155 C332.79232956 55.16906042 332.9131961 56.05677928 333.03772527 56.97139871 C334.74105083 70.11545039 335.71053096 83.3430895 336.76757634 96.55143237 C337.09209963 100.58850289 337.42413729 104.62495699 337.75515747 108.66149902 C338.39978926 116.53665218 339.03762158 124.41234133 339.6729854 132.28824706 C340.41439631 141.475879 341.16238937 150.66297167 341.91053114 159.85005753 C343.24529098 176.24384285 344.57370421 192.63813627 345.89868164 209.03271484 C347.1824413 224.91726334 348.4714215 240.80137748 349.76586914 256.68505859 C351.17902769 274.02548708 352.58939481 291.36613822 353.99483997 308.70719373 C354.1447658 310.55701732 354.29469252 312.40684083 354.44462013 314.25666428 C354.51836615 315.16660631 354.59211216 316.07654834 354.6680929 317.01406438 C355.18660138 323.40977388 355.70701756 329.8053265 356.22812462 336.20082474 C356.86290828 343.99248659 357.49442116 351.78440567 358.1218427 359.57666393 C358.44167089 363.54787886 358.76287988 367.51896856 359.08795738 371.48975754 C359.38589532 375.12959167 359.6796769 378.7697374 359.97024999 382.41016667 C360.12523864 384.33887174 360.28453842 386.26722892 360.44403094 388.19556677 C362.71993202 416.96320741 356.26362707 439.10742094 337.59375 461.21875 C331.61455791 467.58810144 324.80897319 472.09066 317.13671875 476.20703125 C316.21503906 476.70203125 315.29335938 477.19703125 314.34375 477.70703125 C297.39770246 485.7378803 276.47924347 486.17581746 258.95703125 480.10546875 C255.96257924 478.89991015 253.04943418 477.59800148 250.13671875 476.20703125 C248.73099609 475.54380859 248.73099609 475.54380859 247.296875 474.8671875 C240.23234608 471.29033625 234.7993347 466.69451474 229.13671875 461.20703125 C228.51023437 460.665625 227.88375 460.12421875 227.23828125 459.56640625 C218.91711337 452.11124227 214.33969222 441.273725 210.26171875 431.08203125 C209.97554688 430.37908936 209.689375 429.67614746 209.39453125 428.9519043 C205.08624773 417.66984575 204.68149033 405.6441534 203.93206787 393.71905518 C203.63488712 389.00962934 203.31539619 384.30172003 202.99609375 379.59375 C202.92917328 378.60366943 202.86225281 377.61358887 202.79330444 376.59350586 C202.04099616 365.59284803 201.17264857 354.60184386 200.27850342 343.61190796 C200.10121767 341.43233967 199.92514365 339.25267246 199.75030518 337.07290649 C199.50474072 334.01577848 199.25505099 330.95901782 199.00390625 327.90234375 C198.93109436 326.9927742 198.85828247 326.08320465 198.78326416 325.14607239 C198.4455155 321.10185333 198.06900344 317.16796478 197.13671875 313.20703125 C196.82557129 313.89104004 196.51442383 314.57504883 196.19384766 315.27978516 C190.18063693 328.40292798 184.34253952 341.01653934 175.13671875 352.20703125 C174.41097656 353.10035156 173.68523437 353.99367188 172.9375 354.9140625 C158.30836953 372.01202289 137.10458922 384.6262415 114.32421875 386.4296875 C90.03150267 387.14235647 68.31773681 380.14625606 50.48242188 363.39575195 C49.02754904 362.00608284 47.58197967 360.60669409 46.13671875 359.20703125 C45.33105469 358.44132812 44.52539062 357.675625 43.6953125 356.88671875 C34.11083574 347.58560913 26.20880985 336.80691706 18.13671875 326.20703125 C17.01990472 335.36047133 16.97395163 344.47867776 16.93748856 353.68380165 C16.92553319 356.440001 16.90604223 359.196055 16.8843689 361.95219421 C16.82329785 369.78114901 16.76882457 377.61008323 16.73535156 385.43920898 C16.71424363 390.25015231 16.67882376 395.06081918 16.63459396 399.87160301 C16.62057266 401.68816029 16.61174343 403.50476633 16.60853958 405.32137489 C16.55721131 431.63074938 9.53180869 452.5776411 -8.54296875 472.1015625 C-24.43921277 487.00746544 -44.72000519 493.78156627 -66.35424805 493.25415039 C-86.25560855 492.16826986 -105.1434231 481.62839811 -118.61328125 467.33203125 C-125.25317418 459.61068466 -129.3009328 451.52388706 -133.11328125 442.14453125 C-133.45496338 441.3055127 -133.79664551 440.46649414 -134.14868164 439.60205078 C-134.63389282 438.36817627 -134.63389282 438.36817627 -135.12890625 437.109375 C-135.41540039 436.38226318 -135.70189453 435.65515137 -135.99707031 434.90600586 C-138.38633561 427.46143769 -139.1557869 420.4876858 -139.12207031 412.68847656 C-139.1255183 411.67198154 -139.12896629 410.65548653 -139.13251877 409.60818863 C-139.14116179 406.25044484 -139.1353239 402.89290247 -139.12890625 399.53515625 C-139.13110619 397.15856865 -139.13396793 394.78198158 -139.13745117 392.40539551 C-139.14324959 386.06634141 -139.13467609 379.72739131 -139.12123108 373.38835144 C-139.11326708 369.45002241 -139.10825314 365.51169878 -139.10388184 361.57336426 C-139.05548238 323.74482681 -138.77224425 285.99339785 -136.86328125 248.20703125 C-136.7968507 246.85584714 -136.7306766 245.50465039 -136.66473389 244.15344238 C-134.16591366 193.00649974 -130.61564552 141.97120412 -124.80078125 91.08203125 C-124.68285217 90.04326843 -124.5649231 89.00450562 -124.44342041 87.93426514 C-123.1291131 76.46893828 -121.60479875 65.04718279 -119.82421875 53.64453125 C-119.66424911 52.60183075 -119.50427948 51.55913025 -119.33946228 50.48483276 C-117.40445299 38.44912065 -112.84269616 29.2078379 -105.86328125 19.20703125 C-105.32960937 18.43617187 -104.7959375 17.6653125 -104.24609375 16.87109375 C-97.26274696 7.34834813 -88.39144706 -0.44075052 -77.86328125 -5.79296875 C-76.98542969 -6.24414062 -76.10757813 -6.6953125 -75.203125 -7.16015625 C-51.44829508 -18.20435503 -21.04812318 -16.05365327 0 0 Z M-68.23413086 0.78808594 C-75.39024257 4.1022345 -81.26766835 7.58425518 -86.86328125 13.20703125 C-87.98707072 14.04199632 -89.11209271 14.87530485 -90.23828125 15.70703125 C-93.81531295 18.77540248 -96.35705163 22.45976595 -98.98828125 26.33203125 C-99.3961084 26.92306641 -99.80393555 27.51410156 -100.22412109 28.12304688 C-108.16028249 40.20831163 -110.17459599 52.46751956 -111.86328125 66.51953125 C-112.11347312 68.50393426 -112.36454956 70.48822591 -112.61645508 72.47241211 C-116.85791844 106.28918381 -120.42405833 140.21089898 -122.86328125 174.20703125 C-122.92302124 175.0333606 -122.98276123 175.85968994 -123.04431152 176.71105957 C-124.06830388 190.97202631 -124.90850286 205.24074297 -125.66607666 219.51818848 C-125.86796469 223.29463818 -126.07734377 227.07063297 -126.28662109 230.84667969 C-128.59205642 273.26877405 -129.22867452 315.69770044 -129.34270507 358.17538846 C-129.35653488 363.04040469 -129.38226669 367.90526474 -129.41268921 372.77020264 C-129.45333821 379.40138835 -129.46426575 386.03221484 -129.45618248 392.66354752 C-129.45674027 395.12572971 -129.46548705 397.58792621 -129.48316383 400.05004501 C-129.96915293 419.76959867 -129.96915293 419.76959867 -123.86328125 438.20703125 C-120.66658685 440.98460483 -117.06722116 443.10837417 -113.1015625 444.59765625 C-112.40756348 444.86384766 -111.71356445 445.13003906 -110.99853516 445.40429688 C-110.29390137 445.66919922 -109.58926758 445.93410156 -108.86328125 446.20703125 C-107.43997272 446.78483256 -106.01679601 447.36295868 -104.59375 447.94140625 C-95.84727855 451.36272636 -87.26752747 453.49894683 -77.86328125 454.20703125 C-76.80882812 454.28953125 -75.754375 454.37203125 -74.66796875 454.45703125 C-61.37519746 454.9795972 -48.22576503 451.79026503 -37.86328125 443.20703125 C-20.99882082 427.53747623 -13.74313564 403.82882901 -11.80078125 381.39453125 C-11.71626709 380.46817871 -11.63175293 379.54182617 -11.54467773 378.58740234 C-10.75965909 369.32403003 -10.49782971 360.04489 -10.38061523 350.75073242 C-10.10864966 338.53326943 -5.80292068 330.92727847 0.19921875 320.39453125 C0.83666016 319.26337891 1.47410156 318.13222656 2.13085938 316.96679688 C6.77734375 308.74609375 6.77734375 308.74609375 9.13671875 305.20703125 C12.85973378 304.72972163 13.9286296 305.06830515 17.13671875 307.20703125 C17.719375 307.47515625 18.30203125 307.74328125 18.90234375 308.01953125 C22.14312814 309.74190617 24.96761287 311.99940291 27.88671875 314.20703125 C51.2085566 331.52177239 78.85154564 347.83090036 108.63671875 347.64453125 C109.76980469 347.66451172 110.90289062 347.68449219 112.0703125 347.70507812 C127.18492922 347.69642141 140.62320302 341.87961693 151.44921875 331.33203125 C154.33892859 328.30558435 156.89620397 325.23371693 159.32421875 321.83203125 C164.39532168 315.07056067 171.48132383 310.30294872 178.13671875 305.20703125 C180.07435272 303.70669552 182.00838406 302.20195862 183.93920898 300.69287109 C185.11636782 299.77353607 186.29666437 298.85819826 187.48071289 297.94775391 C194.08481091 293.05456047 194.08481091 293.05456047 198.13671875 286.20703125 C200.51171875 286.08203125 200.51171875 286.08203125 203.13671875 286.20703125 C205.54608385 288.61639635 205.49747894 289.48554723 205.84765625 292.8046875 C205.95609863 293.80959229 206.06454102 294.81449707 206.17626953 295.84985352 C206.28696777 296.97834717 206.39766602 298.10684082 206.51171875 299.26953125 C206.69516846 301.05991821 206.69516846 301.05991821 206.88232422 302.88647461 C208.15190045 315.66776462 209.20676874 328.46906081 210.26171875 341.26953125 C210.34798523 342.31094269 210.43425171 343.35235413 210.52313232 344.42532349 C211.44344428 355.5990179 212.30668154 366.76463123 212.78884888 377.96705627 C213.00661106 382.76147521 213.52053235 387.44724587 214.13671875 392.20703125 C214.24369955 393.79278461 214.33018779 395.38026353 214.3828125 396.96875 C214.41568359 397.77763672 214.44855469 398.58652344 214.48242188 399.41992188 C214.54404875 401.08122506 214.60128084 402.74269661 214.65429688 404.40429688 C214.68845703 405.20931641 214.72261719 406.01433594 214.7578125 406.84375 C214.78286865 407.56264404 214.8079248 408.28153809 214.83374023 409.0222168 C215.51519709 413.936284 217.52575306 416.98112956 220.9609375 420.46484375 C222.1214563 421.64276489 222.1214563 421.64276489 223.30541992 422.84448242 C224.55222534 424.07581909 224.55222534 424.07581909 225.82421875 425.33203125 C226.68055908 426.17934814 227.53689941 427.02666504 228.41918945 427.8996582 C244.49970881 443.54924897 263.38810807 456.73951442 286.51171875 457.45703125 C299.35102255 457.26249634 309.89898651 450.81127609 319.17578125 442.25390625 C342.68774148 417.71154139 347.9317942 383.54545234 347.26434326 350.91674805 C346.85878268 339.12814357 345.737274 327.37028419 344.71498489 315.62229919 C344.36501533 311.57146638 344.02761015 307.51958624 343.68920898 303.46777344 C343.19464096 297.55650945 342.6968952 291.64553153 342.19478512 285.73490334 C341.32318811 275.4709118 340.47693331 265.20505574 339.6484375 254.9375 C339.58862827 254.19644453 339.52881905 253.45538906 339.46719742 252.69187737 C339.22559857 249.69709335 338.9841987 246.7022934 338.74310112 243.70746899 C338.13207471 236.11757241 337.51645346 228.52805076 336.9003334 220.93856621 C336.71026269 218.59715605 336.52026628 216.25573987 336.33029175 213.9143219 C335.93251554 209.01188507 335.53462462 204.10945756 335.13671875 199.20703125 C335.06594368 198.3349855 334.99516861 197.46293976 334.92224884 196.56446838 C333.0589705 173.60668323 331.19317232 150.64910652 329.31872559 127.69223022 C329.18171938 126.01422141 329.04471576 124.33621238 328.90771484 122.65820312 C328.84162144 121.84869013 328.77552803 121.03917713 328.70743179 120.20513344 C328.19151475 113.88382022 327.67847799 107.56227649 327.16589355 101.24069214 C326.8021453 96.76340598 326.43560142 92.28635293 326.06793213 87.80938721 C325.90947467 85.87357118 325.75214542 83.93766235 325.59613037 82.00164795 C324.54393311 60.49332417 324.54393311 60.49332417 318.82421875 40.01953125 C318.39979492 38.97442383 318.39979492 38.97442383 317.96679688 37.90820312 C313.82726505 28.24317649 305.32086081 23.52634297 296.13671875 19.20703125 C280.22869387 13.13342377 262.45759168 15.85425997 247.2109375 22.6328125 C231.77291663 30.5381777 221.25033627 40.39656434 211.77197266 54.75976562 C208.6740379 59.39602988 205.45747521 63.95042943 202.26171875 68.51953125 C196.82444262 76.32034109 191.42826452 84.14739795 186.07080078 92.00317383 C181.1191745 99.25425813 176.09928631 106.45712408 171.078125 113.66015625 C166.90177169 119.6561491 162.7537307 125.67015919 158.63671875 131.70703125 C153.12265574 139.79196796 147.54206618 147.82935901 141.94628906 155.85791016 C138.07201103 161.41840732 134.21688768 166.99108378 130.38671875 172.58203125 C129.09391494 174.46205247 127.7998499 176.34119481 126.50488281 178.21972656 C125.53094062 179.63441062 124.55916517 181.05058742 123.58886719 182.46777344 C121.98733707 184.80281403 120.37556639 187.13049183 118.76171875 189.45703125 C118.27348633 190.17294434 117.78525391 190.88885742 117.28222656 191.62646484 C112.70997493 198.17960595 107.93390793 202.1742445 100.13671875 204.20703125 C93.09942904 205.11506863 87.87359962 203.41287641 82.13671875 199.20703125 C78.62682583 195.55648688 75.88442613 191.44173322 73.13671875 187.20703125 C72.62625 186.42585937 72.11578125 185.6446875 71.58984375 184.83984375 C67.36351918 178.34236345 63.2436576 171.78037153 59.13671875 165.20703125 C58.01445191 163.42309593 56.89205959 161.63923954 55.76953125 159.85546875 C40.79903601 135.97720529 26.07123024 111.65868346 17.640625 84.61303711 C11.55276877 65.52782839 -0.41336466 49.70691672 -13.46704102 34.80810547 C-14.41695565 33.71883458 -15.35724461 32.62111067 -16.28881836 31.51611328 C-21.63883421 25.24072051 -27.45227465 19.43192424 -33.2800293 13.60498047 C-35.06263252 11.82016527 -36.8370482 10.02746009 -38.61132812 8.234375 C-39.75081303 7.09195991 -40.8907701 5.95001553 -42.03125 4.80859375 C-42.55736374 4.27529449 -43.08347748 3.74199524 -43.62553406 3.1925354 C-51.64775007 -4.7800841 -58.37289838 -3.53101886 -68.23413086 0.78808594 Z " fill="#1ABE02" transform="translate(146.86328125,15.79296875)"/>
<path d="M0 0 C0.8971875 0.37253906 1.794375 0.74507812 2.71875 1.12890625 C22.09346454 9.9272339 33.1710615 27.74069851 42.16796875 46.11328125 C43.0093615 47.80954903 43.0093615 47.80954903 43.86775208 49.54008484 C45.3485495 52.52643007 46.82452891 55.51503743 48.29736328 58.50531006 C56.46781128 75.09326911 64.75620629 91.56108607 73.73873901 107.72628784 C75.46139719 110.83177425 77.15774425 113.95112937 78.85546875 117.0703125 C85.33659673 128.88131546 92.01621003 140.54320815 99 152.0625 C99.35121918 152.64364563 99.70243835 153.22479126 100.06430054 153.82354736 C104.45520871 161.07429704 109.04019791 168.12505558 114 175 C116.42803049 174.73149412 116.42803049 174.73149412 119 174 C120.74318451 171.60925927 122.11196968 169.39952137 123.5 166.8125 C124.3793702 165.24952815 125.25962194 163.68705204 126.140625 162.125 C126.60404297 161.29097656 127.06746094 160.45695313 127.54492188 159.59765625 C130.04717954 155.13053854 132.64664827 150.72125026 135.25 146.3125 C135.7975293 145.38518066 136.34505859 144.45786133 136.90917969 143.50244141 C155.73468043 111.78283683 177.01510811 81.59103932 199 52 C199.62769287 51.15211914 199.62769287 51.15211914 200.26806641 50.28710938 C231.04113441 8.72279213 231.04113441 8.72279213 247.1875 1.25 C248.44542358 0.66424194 248.44542358 0.66424194 249.72875977 0.06665039 C256.08826102 -2.79331971 261.99124618 -4.64057673 269 -5 C270.41925781 -5.10054687 270.41925781 -5.10054687 271.8671875 -5.203125 C288.59789504 -5.82442448 304.79433027 -0.59896283 317.5 10.375 C322.12893358 14.87055753 326.14128732 19.83708555 330 25 C329.67 25.66 329.34 26.32 329 27 C327.69289063 26.18595703 327.69289063 26.18595703 326.359375 25.35546875 C310.86568739 15.94357933 296.2252045 13.71980025 278.3671875 18.03515625 C267.38703322 21.18144176 258.27514261 26.5017099 249 33 C248.24847656 33.51949219 247.49695313 34.03898437 246.72265625 34.57421875 C240.25661038 39.61218087 236.12403364 46.78761035 231.65136719 53.53662109 C228.54235917 58.17439326 225.32433483 62.73681316 222.125 67.3125 C216.68785352 75.11340124 211.2915467 82.94036534 205.93408203 90.79614258 C200.98245575 98.04722688 195.96256756 105.25009283 190.94140625 112.453125 C186.76505294 118.44911785 182.61701195 124.46312794 178.5 130.5 C172.98593699 138.58493671 167.40534743 146.62232776 161.80957031 154.65087891 C158.38289114 159.56896678 154.96512673 164.49249613 151.57739258 169.4375 C149.84422543 171.96728012 148.10436036 174.49241365 146.36376953 177.01708984 C145.39587583 178.42439965 144.43101519 179.83379764 143.46826172 181.24462891 C141.88292661 183.56471425 140.28622806 185.87662928 138.6875 188.1875 C138.20764648 188.89503418 137.72779297 189.60256836 137.23339844 190.33154297 C132.45952257 197.18799323 127.27192285 201.94768581 119 204 C111.8947666 204.91680431 106.8785757 203.03828722 101 199 C94.82910364 192.48614847 90.0682382 184.75441844 85.3125 177.1875 C84.62188477 176.09727539 83.93126953 175.00705078 83.21972656 173.88378906 C81.13950247 170.59353126 79.068786 167.29745842 77 164 C76.40429199 163.05527832 75.80858398 162.11055664 75.19482422 161.13720703 C59.66061109 136.48518326 44.22285836 111.37667802 35.50390625 83.40600586 C29.41660099 64.32252443 17.45184052 48.49992522 4.39794922 33.60327148 C3.44202344 32.50694515 2.49613897 31.40180376 1.55908203 30.28930664 C-4.17322637 23.56064754 -10.48092566 17.40901337 -16.75 11.1875 C-17.89737031 10.04515775 -19.04450741 8.90258123 -20.19140625 7.75976562 C-22.28469989 5.67457828 -24.3792714 3.59069517 -26.47558594 1.50854492 C-28.32024416 -0.32451729 -30.16288401 -2.15938992 -32 -4 C-20.35174929 -6.60749832 -10.83783277 -4.65768766 0 0 Z " fill="#32D109" transform="translate(128,17)"/>
<path d="M0 0 C0.33 0 0.66 0 1 0 C1.05048461 19.73667832 0.97098993 39.47366156 0.81609344 59.20972824 C0.77647814 64.31610312 0.74430378 69.42229816 0.72900391 74.52880859 C0.71371977 79.54818978 0.67913058 84.56711562 0.63169098 89.58629227 C0.6170666 91.47014014 0.60897014 93.35405256 0.60811615 95.237957 C0.58569576 119.83947866 -5.54907803 140.47038064 -23.30078125 158.3125 C-37.99871484 170.96013361 -55.8149864 175.71914803 -75 175 C-91.33846557 173.02085597 -107.61642825 163.74465991 -118.1953125 151.30859375 C-123.06107491 145.08420936 -127.43402223 138.82988887 -129 131 C-124.70471632 132.31794873 -120.70073619 133.99285419 -116.63085938 135.86889648 C-105.91736494 140.80707731 -95.8770436 144.4026339 -84 145 C-83.02546875 145.06445312 -82.0509375 145.12890625 -81.046875 145.1953125 C-66.35605363 145.73807684 -52.7559882 142.07289693 -41.796875 131.96875 C-27.15546269 116.54497215 -20.73715515 93.97361384 -18.9375 73.1875 C-18.85298584 72.26114746 -18.76847168 71.33479492 -18.68139648 70.38037109 C-17.89637784 61.11699878 -17.63454846 51.83785875 -17.51733398 42.54370117 C-17.24351066 30.24278266 -12.86664387 22.60234222 -6.8125 12 C-6.15116591 10.83232946 -5.49035438 9.66436279 -4.83007812 8.49609375 C-3.22515259 5.66111579 -1.61502148 2.82923471 0 0 Z " fill="#32D209" transform="translate(153,324)"/>
<path d="M0 0 C0.66 0 1.32 0 2 0 C0.25550984 5.96958482 -2.48335895 11.42183133 -5.1875 17 C-5.68580322 18.02875244 -6.18410645 19.05750488 -6.69750977 20.11743164 C-7.68839973 22.16107189 -8.68047425 24.20413828 -9.67382812 26.24658203 C-10.7623985 28.50668819 -11.82215557 30.77469353 -12.859375 33.05859375 C-23.75006596 56.37653356 -41.17884372 72.10852472 -65.1640625 81.19921875 C-81.04156283 86.59908461 -101.14702962 84.61722651 -116.33984375 77.4375 C-125.25446941 72.62019862 -132.69380595 67.01696434 -140 60 C-140.92232422 59.13761719 -140.92232422 59.13761719 -141.86328125 58.2578125 C-146.55128077 53.75302215 -150.58391277 48.75282574 -154.64453125 43.68505859 C-156.72118227 41.10345821 -158.81961749 38.53971427 -160.91479492 35.97314453 C-163.12926297 33.25635104 -165.33439223 30.53208306 -167.53759766 27.80615234 C-168.81579122 26.22750861 -170.10069648 24.65430398 -171.38671875 23.08203125 C-172.02222656 22.29183594 -172.65773437 21.50164062 -173.3125 20.6875 C-173.84488281 20.03136719 -174.37726563 19.37523437 -174.92578125 18.69921875 C-176 17 -176 17 -176 14 C-172.00239017 15.741533 -168.70348279 18.38823914 -165.25 21 C-141.92816215 38.31474114 -114.28517311 54.62386911 -84.5 54.4375 C-82.80037109 54.4674707 -82.80037109 54.4674707 -81.06640625 54.49804688 C-66.32508626 54.48960397 -52.80284091 48.93447515 -42.1875 38.625 C-39.50981643 35.80488645 -37.18695716 32.91547323 -34.9375 29.75 C-29.55767356 22.60180468 -22.00525498 17.45356029 -15 12 C-13.62689739 10.92016896 -12.25448337 9.83946165 -10.8828125 8.7578125 C-8.45933688 6.84778253 -6.03085137 4.94450174 -3.59765625 3.046875 C-1.73726445 1.5927332 -1.73726445 1.5927332 0 0 Z " fill="#32D109" transform="translate(340,308)"/>
<path d="M0 0 C0.33 0 0.66 0 1 0 C1.46103986 5.65073329 1.90572613 11.30245809 2.33666992 16.95556641 C2.48475629 18.86996299 2.63695661 20.78404677 2.79370117 22.69775391 C3.58981369 32.45077224 4.23216768 42.10607918 3.72265625 51.890625 C3.68741348 52.59774628 3.65217072 53.30486755 3.61585999 54.03341675 C2.35465751 72.51675221 -8.5596759 89.51353269 -21.9375 101.8125 C-36.26559287 113.64875063 -52.74366311 117.48266886 -71 117.0625 C-88.35633707 115.36481456 -104.81832482 104.93001271 -116 92 C-123.18437099 83.11562353 -128.15483364 71.0522722 -131 60 C-130.67 59.34 -130.34 58.68 -130 58 C-129.25447876 58.77694214 -129.25447876 58.77694214 -128.49389648 59.56958008 C-109.70084089 79.04562654 -89.20796234 98.36308156 -60.625 99.25 C-50.08210462 99.09025916 -42.46285498 95.04302782 -34 89 C-33.36191406 88.54882812 -32.72382813 88.09765625 -32.06640625 87.6328125 C-13.08106135 72.8128435 -4.85343823 45.41371415 -1.83740234 22.60205078 C-0.92917309 15.08620649 -0.33689392 7.56268773 0 0 Z " fill="#31D109" transform="translate(494,373)"/>
</svg>
