<?xml version="1.0" standalone="no"?>
<!DOCTYPE svg PUBLIC "-//W3C//DTD SVG 20010904//EN"
 "http://www.w3.org/TR/2001/REC-SVG-20010904/DTD/svg10.dtd">
<svg version="1.0" xmlns="http://www.w3.org/2000/svg"
 width="462.000000pt" height="139.000000pt" viewBox="0 0 462.000000 139.000000"
 preserveAspectRatio="xMidYMid meet">

<g transform="translate(0.000000,139.000000) scale(0.100000,-0.100000)"
fill="#000000" stroke="none">
<path d="M3519 1338 c-32 -44 -73 -118 -65 -118 2 0 18 24 35 54 55 98 52 70
-4 -39 -30 -59 -55 -111 -55 -116 0 -26 19 1 54 76 21 46 52 99 68 117 l29 33
-6 -50 c-3 -27 -9 -58 -12 -69 -3 -11 -1 -16 5 -12 10 6 -4 -73 -15 -84 -3 -3
-2 11 2 30 13 60 -2 29 -25 -55 -12 -44 -28 -89 -36 -99 -10 -14 -10 -23 -3
-33 14 -16 4 -43 -16 -43 -8 0 -15 -8 -15 -17 0 -16 2 -16 11 -3 8 11 9 9 3
-10 -13 -49 -35 -82 -50 -76 -11 4 -12 2 -4 -14 12 -23 13 -33 1 -26 -5 4 -7
-3 -4 -14 4 -14 0 -20 -11 -20 -9 0 -19 0 -23 -1 -12 0 -36 -50 -28 -57 9 -9
25 20 18 32 -3 5 -1 6 5 2 7 -4 12 -2 12 5 0 7 2 10 6 7 3 -3 -4 -21 -15 -39
-11 -18 -18 -36 -15 -41 3 -4 0 -8 -6 -8 -6 0 -10 8 -8 18 2 9 -3 16 -10 14
-8 -1 -11 6 -8 20 20 91 68 284 84 336 11 34 18 62 16 62 -4 0 -34 -68 -39
-90 -11 -45 -64 -193 -65 -180 0 8 -14 -34 -30 -95 -35 -136 -46 -164 -65
-171 -8 -4 -15 -14 -15 -24 0 -30 -110 -120 -153 -125 -12 -2 -35 -6 -50 -10
l-29 -8 4 64 c3 60 2 64 -20 67 -18 3 -21 8 -17 23 17 53 -75 81 -118 36 -35
-37 -76 -87 -71 -87 2 0 -5 -18 -16 -40 -24 -47 -26 -83 -4 -104 27 -28 47
-19 143 62 l66 56 5 -47 c3 -26 11 -52 17 -58 20 -20 59 -13 115 20 64 37 123
85 93 75 -14 -5 -8 6 19 34 22 23 41 41 42 39 1 -1 -11 -65 -27 -142 -16 -77
-29 -145 -29 -150 0 -10 59 -50 64 -43 1 1 8 35 15 73 27 155 30 160 93 230
33 36 74 73 91 81 l30 16 -6 -50 c-6 -53 -44 -139 -71 -162 -10 -7 -14 -21
-11 -34 3 -12 2 -15 -1 -8 -5 10 -11 9 -31 -4 l-26 -16 7 42 c4 23 13 56 22
74 l15 31 -20 -25 c-11 -14 -28 -47 -37 -74 -17 -49 -16 -50 6 -68 27 -22 44
-23 79 -2 72 42 155 232 123 280 -31 47 -108 34 -159 -26 -22 -25 -39 -38 -45
-32 -13 13 0 55 26 83 25 28 105 173 126 229 7 19 21 55 33 80 60 135 114 345
101 402 -4 22 -41 58 -59 58 -2 0 -19 -19 -36 -42z m-8 -345 c-12 -20 -14 -14
-5 12 4 9 9 14 11 11 3 -2 0 -13 -6 -23z m-591 -457 c0 -23 -85 -112 -131
-137 -26 -13 -24 -3 11 57 48 85 120 133 120 80z m380 -23 c-11 -17 -11 -17
-6 0 3 10 6 24 7 30 0 9 2 9 5 0 3 -7 0 -20 -6 -30z m-30 -34 c-12 -41 -24
-53 -14 -14 7 32 13 45 19 45 2 0 0 -14 -5 -31z m184 -79 c-15 -28 -30 -48
-32 -45 -3 3 0 11 6 17 15 15 16 31 0 22 -7 -4 -8 -3 -4 5 4 6 11 9 15 6 5 -2
13 7 19 20 7 14 14 25 17 25 4 0 -6 -23 -21 -50z m-324 25 c0 -2 -18 -14 -40
-25 -22 -11 -40 -18 -40 -15 0 2 17 13 38 24 42 23 42 23 42 16z"/>
<path d="M3361 974 c0 -11 3 -14 6 -6 3 7 2 16 -1 19 -3 4 -6 -2 -5 -13z"/>
<path d="M3475 950 c3 -5 8 -10 11 -10 2 0 4 5 4 10 0 6 -5 10 -11 10 -5 0 -7
-4 -4 -10z"/>
<path d="M3341 904 c0 -11 3 -14 6 -6 3 7 2 16 -1 19 -3 4 -6 -2 -5 -13z"/>
<path d="M3331 864 c0 -11 3 -14 6 -6 3 7 2 16 -1 19 -3 4 -6 -2 -5 -13z"/>
<path d="M4326 781 c-17 -18 -17 -20 2 -30 22 -12 42 3 42 31 0 24 -22 23 -44
-1z"/>
<path d="M533 670 c-16 -28 -22 -30 -53 -25 -35 6 -36 5 -105 -88 -55 -74 -73
-93 -90 -89 -15 2 -32 -10 -64 -48 l-44 -52 89 7 c49 4 91 9 94 12 3 2 9 23
15 46 9 37 14 42 42 45 29 3 36 10 63 65 16 34 43 78 59 97 l30 35 83 -42
c137 -70 132 -57 64 -158 -31 -48 -56 -89 -54 -91 2 -2 30 6 62 18 47 17 58
26 63 48 4 21 13 29 41 36 33 8 36 13 49 67 7 33 16 63 19 69 4 5 29 -12 58
-40 28 -27 95 -84 148 -126 l98 -77 -67 96 -67 96 -18 -23 c-19 -26 -17 -28
-82 64 l-47 68 -65 -41 c-72 -46 -66 -47 -158 24 -33 26 -41 29 -58 18 -16
-10 -24 -9 -43 3 -34 22 -41 20 -62 -14z"/>
<path d="M1366 611 c-3 -21 -20 -75 -37 -120 -29 -77 -36 -141 -14 -148 6 -1
29 37 52 85 24 49 55 99 70 113 23 21 25 22 19 4 -15 -40 -19 -122 -6 -144 18
-34 53 -20 129 52 l66 61 5 -51 c3 -27 11 -57 18 -66 33 -40 126 -18 227 55
l58 41 -6 -31 c-9 -47 2 -91 29 -108 20 -14 26 -14 56 2 18 9 60 40 92 68 33
28 61 46 63 41 2 -6 12 -25 23 -42 16 -27 26 -33 53 -33 34 0 98 36 150 84
l27 25 0 -83 c0 -81 -1 -83 -35 -116 -19 -18 -33 -36 -30 -38 3 -3 -7 -15 -21
-27 -17 -14 -24 -28 -19 -35 5 -8 4 -11 -2 -7 -17 11 -36 -49 -30 -90 4 -21
15 -49 25 -63 39 -52 126 -30 158 42 16 35 17 48 6 121 -9 61 -9 84 0 94 14
17 101 83 181 138 61 41 80 59 51 48 -12 -4 -15 -2 -12 8 3 8 11 13 17 12 6
-2 11 4 11 12 0 9 -23 -1 -67 -32 -80 -54 -95 -67 -70 -58 9 4 17 3 17 -3 0
-14 -129 -106 -137 -99 -3 4 -6 34 -6 69 -1 78 27 166 56 177 20 8 20 8 -3 31
l-23 23 -18 -21 c-9 -12 -20 -22 -22 -22 -9 0 -82 -72 -82 -80 0 -5 -4 -12 -9
-17 -5 -5 -6 -3 -2 5 11 19 -2 14 -37 -12 -41 -31 -82 -47 -103 -39 -12 4 -15
14 -10 42 4 30 2 39 -15 49 -19 12 -26 9 -68 -26 -25 -22 -46 -45 -46 -53 -1
-8 -6 -13 -13 -11 -7 1 -29 -9 -50 -23 -20 -14 -43 -25 -50 -25 -15 0 -14 2
25 122 25 73 26 108 3 108 -6 0 -13 -8 -17 -17 -3 -10 -18 -31 -32 -46 -22
-24 -23 -27 -6 -21 15 5 13 0 -9 -20 -17 -15 -32 -22 -36 -16 -3 6 -21 -1 -44
-16 -56 -38 -117 -64 -154 -64 l-34 0 7 58 c6 50 4 60 -14 76 -24 22 -34 17
-126 -63 -32 -28 -60 -49 -63 -46 -3 3 3 32 13 65 14 45 16 68 9 88 -12 33
-39 40 -65 16 -10 -9 -20 -15 -22 -13 -1 2 -7 13 -13 23 -18 33 -31 29 -38
-13z m274 -65 c0 -2 -8 -10 -17 -17 -16 -13 -17 -12 -4 4 13 16 21 21 21 13z
m802 -16 c-12 -11 -24 -20 -28 -20 -4 0 1 9 11 20 10 11 23 20 28 20 6 0 1 -9
-11 -20z m-272 -40 c-8 -5 -17 -7 -19 -4 -3 3 1 9 9 14 8 5 17 7 19 4 3 -3 -1
-9 -9 -14z m-38 -22 c-7 -7 -12 -8 -12 -2 0 14 12 26 19 19 2 -3 -1 -11 -7
-17z m549 -14 c-28 -24 -68 -34 -56 -14 4 6 10 8 15 5 4 -3 11 2 14 11 3 8 10
13 15 10 5 -3 12 1 15 10 3 8 10 12 16 9 6 -3 -3 -17 -19 -31z m-223 -265 c-3
-65 -6 -74 -36 -100 -40 -36 -82 -39 -82 -6 1 48 82 177 112 177 6 0 9 -27 6
-71z"/>
<path d="M3825 568 c-36 -41 -95 -150 -95 -174 0 -7 8 -22 18 -34 26 -33 55
-22 137 50 37 33 72 60 76 60 5 0 9 -19 9 -42 0 -77 28 -90 108 -48 59 30 133
86 98 73 -13 -4 -17 -3 -12 5 4 7 -12 -1 -36 -17 -24 -15 -50 -28 -58 -29 -8
0 -30 -3 -48 -7 l-33 -8 7 44 c4 24 7 46 6 49 0 34 -4 40 -26 40 -20 0 -22 4
-18 27 6 32 -18 53 -64 53 -26 0 -40 -9 -69 -42z m46 -103 c-74 -68 -91 -80
-91 -63 0 28 62 119 97 143 l38 25 6 -27 c4 -24 -2 -35 -50 -78z m235 -60
c-11 -8 -25 -15 -30 -15 -6 1 0 7 14 15 32 19 40 18 16 0z"/>
<path d="M4253 583 c-9 -16 -26 -39 -37 -52 -12 -14 -15 -21 -6 -16 8 5 5 -3
-8 -17 -15 -17 -20 -28 -13 -33 6 -3 11 -20 11 -36 0 -66 75 -98 154 -65 36
15 147 98 141 105 -3 2 -11 -1 -19 -8 -8 -6 -18 -11 -22 -9 -5 1 -23 -5 -39
-14 -56 -30 -157 -60 -167 -50 -12 12 15 112 43 161 15 26 17 36 8 47 -17 20
-26 17 -46 -13z"/>
<path d="M2777 568 c-15 -11 -27 -26 -27 -34 0 -17 16 -19 26 -2 5 7 2 9 -7 3
-8 -4 0 4 16 18 37 31 31 43 -8 15z"/>
<path d="M4512 492 c-1 -14 -1 -24 1 -21 1 2 8 11 15 20 10 13 10 18 -1 22 -8
3 -14 -4 -15 -21z"/>
<path d="M3683 433 c-18 -6 -16 -38 2 -53 12 -10 16 -9 21 4 8 22 -7 55 -23
49z"/>
<path d="M2545 394 l-30 -26 33 22 c17 12 32 23 32 26 0 7 -4 5 -35 -22z"/>
<path d="M2497 363 c-4 -3 -7 -11 -7 -17 0 -6 5 -5 12 2 6 6 9 14 7 17 -3 3
-9 2 -12 -2z"/>
</g>
</svg>
